
<group>
trigger=first
pitch_keycenter=24
volume=-5
locc107=81

<region>
sample=..\Samples\pizzcato\C1_4.wav
lokey=24
hikey=25
group=1
off_by=1
tune_oncc123=5
pan_oncc122=-15

<region>
sample=..\Samples\pizzcato\C1_3.wav
lokey=24
hikey=25
group=2
off_by=2
tune_oncc123=-4
pan_oncc122=15

<region>
sample=..\Samples\pizzcato\C1_2.wav
lokey=24
hikey=25
group=3
off_by=3
tune_oncc123=-7
pan_oncc122=-40

<region>
sample=..\Samples\pizzcato\C1_1.wav
lokey=24
hikey=25
group=8
off_by=8
tune_oncc123=8
pan_oncc122=40

//========================
<group>
trigger=first
pitch_keycenter=27
volume=-5
locc107=81

<region>
sample=..\Samples\pizzcato\Eb1_4.wav
lokey=26
hikey=28
group=1
off_by=1
tune_oncc123=5
pan_oncc122=-15

<region>
sample=..\Samples\pizzcato\Eb1_3.wav
lokey=26
hikey=28
group=2
off_by=2
tune_oncc123=-4
pan_oncc122=15

<region>
sample=..\Samples\pizzcato\Eb1_2.wav
lokey=26
hikey=28
group=3
off_by=3
tune_oncc123=-7
pan_oncc122=-40

<region>
sample=..\Samples\pizzcato\Eb1_4.wav
lokey=24
hikey=24
group=4
off_by=4
tune_oncc123=-11
pan_oncc122=70

<region>
sample=..\Samples\pizzcato\Eb1_3.wav
lokey=24
hikey=24
group=5
off_by=5
tune_oncc123=10
pan_oncc122=-70

<region>
sample=..\Samples\pizzcato\Eb1_2.wav
lokey=24
hikey=24
group=6
off_by=6
tune_oncc123=13
pan_oncc122=100

<region>
sample=..\Samples\pizzcato\Eb1_1.wav
lokey=24
hikey=24
group=7
off_by=7
tune_oncc123=-14
pan_oncc122=-100

<region>
sample=..\Samples\pizzcato\Eb1_1.wav
lokey=26
hikey=28
group=8
off_by=8
tune_oncc123=8
pan_oncc122=40

//========================
<group>
trigger=first
pitch_keycenter=30
volume=-5
locc107=81

<region>
sample=..\Samples\pizzcato\Gb1_4.wav
lokey=29
hikey=31
group=1
off_by=1
tune_oncc123=5
pan_oncc122=-15

<region>
sample=..\Samples\pizzcato\Gb1_3.wav
lokey=29
hikey=31
group=2
off_by=2
tune_oncc123=-4
pan_oncc122=15

<region>
sample=..\Samples\pizzcato\Gb1_2.wav
lokey=29
hikey=31
group=3
off_by=3
tune_oncc123=-7
pan_oncc122=-40

<region>
sample=..\Samples\pizzcato\Gb1_4.wav
lokey=25
hikey=27
group=4
off_by=4
tune_oncc123=-11
pan_oncc122=70

<region>
sample=..\Samples\pizzcato\Gb1_3.wav
lokey=25
hikey=27
group=5
off_by=5
tune_oncc123=10
pan_oncc122=-70

<region>
sample=..\Samples\pizzcato\Gb1_2.wav
lokey=25
hikey=27
group=6
off_by=6
tune_oncc123=13
pan_oncc122=100

<region>
sample=..\Samples\pizzcato\Gb1_1.wav
lokey=25
hikey=27
group=7
off_by=7
tune_oncc123=-14
pan_oncc122=-100

<region>
sample=..\Samples\pizzcato\Gb1_1.wav
lokey=29
hikey=31
group=8
off_by=8
tune_oncc123=8
pan_oncc122=40

//========================
<group>
trigger=first
pitch_keycenter=33
volume=-5
locc107=81

<region>
sample=..\Samples\pizzcato\A1_4.wav
lokey=32
hikey=34
group=1
off_by=1
tune_oncc123=5
pan_oncc122=-15

<region>
sample=..\Samples\pizzcato\A1_3.wav
lokey=32
hikey=34
group=2
off_by=2
tune_oncc123=-4
pan_oncc122=15

<region>
sample=..\Samples\pizzcato\A1_2.wav
lokey=32
hikey=34
group=3
off_by=3
tune_oncc123=-7
pan_oncc122=-40

<region>
sample=..\Samples\pizzcato\A1_4.wav
lokey=28
hikey=30
group=4
off_by=4
tune_oncc123=-11
pan_oncc122=70

<region>
sample=..\Samples\pizzcato\A1_3.wav
lokey=28
hikey=30
group=5
off_by=5
tune_oncc123=10
pan_oncc122=-70

<region>
sample=..\Samples\pizzcato\A1_2.wav
lokey=28
hikey=30
group=6
off_by=6
tune_oncc123=13
pan_oncc122=100

<region>
sample=..\Samples\pizzcato\A1_1.wav
lokey=28
hikey=30
group=7
off_by=7
tune_oncc123=-14
pan_oncc122=-100

<region>
sample=..\Samples\pizzcato\A1_1.wav
lokey=32
hikey=34
group=8
off_by=8
tune_oncc123=8
pan_oncc122=40

//========================
<group>
trigger=first
pitch_keycenter=36
volume=-5
locc107=81

<region>
sample=..\Samples\pizzcato\C2_4.wav
lokey=35
hikey=37
group=1
off_by=1
tune_oncc123=5
pan_oncc122=-15

<region>
sample=..\Samples\pizzcato\C2_3.wav
lokey=35
hikey=37
group=2
off_by=2
tune_oncc123=-4
pan_oncc122=15

<region>
sample=..\Samples\pizzcato\C2_2.wav
lokey=35
hikey=37
group=3
off_by=3
tune_oncc123=-7
pan_oncc122=-40

<region>
sample=..\Samples\pizzcato\C2_4.wav
lokey=31
hikey=33
group=4
off_by=4
tune_oncc123=-11
pan_oncc122=70

<region>
sample=..\Samples\pizzcato\C2_3.wav
lokey=31
hikey=33
group=5
off_by=5
tune_oncc123=10
pan_oncc122=-70

<region>
sample=..\Samples\pizzcato\C2_2.wav
lokey=31
hikey=33
group=6
off_by=6
tune_oncc123=13
pan_oncc122=100

<region>
sample=..\Samples\pizzcato\C2_1.wav
lokey=31
hikey=33
group=7
off_by=7
tune_oncc123=-14
pan_oncc122=-100

<region>
sample=..\Samples\pizzcato\C2_1.wav
lokey=35
hikey=37
group=8
off_by=8
tune_oncc123=8
pan_oncc122=40

//========================
<group>
trigger=first
pitch_keycenter=39
volume=-5
locc107=81

<region>
sample=..\Samples\pizzcato\Eb2_4.wav
lokey=38
hikey=40
group=1
off_by=1
tune_oncc123=5
pan_oncc122=-15

<region>
sample=..\Samples\pizzcato\Eb2_3.wav
lokey=38
hikey=40
group=2
off_by=2
tune_oncc123=-4
pan_oncc122=15

<region>
sample=..\Samples\pizzcato\Eb2_2.wav
lokey=38
hikey=40
group=3
off_by=3
tune_oncc123=-7
pan_oncc122=-40

<region>
sample=..\Samples\pizzcato\Eb2_4.wav
lokey=34
hikey=36
group=4
off_by=4
tune_oncc123=-11
pan_oncc122=70

<region>
sample=..\Samples\pizzcato\Eb2_3.wav
lokey=34
hikey=36
group=5
off_by=5
tune_oncc123=10
pan_oncc122=-70

<region>
sample=..\Samples\pizzcato\Eb2_2.wav
lokey=34
hikey=36
group=6
off_by=6
tune_oncc123=13
pan_oncc122=100

<region>
sample=..\Samples\pizzcato\Eb2_1.wav
lokey=34
hikey=36
group=7
off_by=7
tune_oncc123=-14
pan_oncc122=-100

<region>
sample=..\Samples\pizzcato\Eb2_1.wav
lokey=38
hikey=40
group=8
off_by=8
tune_oncc123=8
pan_oncc122=40

//========================
<group>
trigger=first
pitch_keycenter=42
volume=-5
locc107=81

<region>
sample=..\Samples\pizzcato\Gb2_4.wav
lokey=41
hikey=43
group=1
off_by=1
tune_oncc123=5
pan_oncc122=-15

<region>
sample=..\Samples\pizzcato\Gb2_3.wav
lokey=41
hikey=43
group=2
off_by=2
tune_oncc123=-4
pan_oncc122=15

<region>
sample=..\Samples\pizzcato\Gb2_2.wav
lokey=41
hikey=43
group=3
off_by=3
tune_oncc123=-7
pan_oncc122=-40

<region>
sample=..\Samples\pizzcato\Gb2_4.wav
lokey=37
hikey=39
group=4
off_by=4
tune_oncc123=-11
pan_oncc122=70

<region>
sample=..\Samples\pizzcato\Gb2_3.wav
lokey=37
hikey=39
group=5
off_by=5
tune_oncc123=10
pan_oncc122=-70

<region>
sample=..\Samples\pizzcato\Gb2_2.wav
lokey=37
hikey=39
group=6
off_by=6
tune_oncc123=13
pan_oncc122=100

<region>
sample=..\Samples\pizzcato\Gb2_1.wav
lokey=37
hikey=39
group=7
off_by=7
tune_oncc123=-14
pan_oncc122=-100

<region>
sample=..\Samples\pizzcato\Gb2_1.wav
lokey=41
hikey=43
group=8
off_by=8
tune_oncc123=8
pan_oncc122=40

//========================
<group>
trigger=first
pitch_keycenter=45
volume=-5
locc107=81

<region>
sample=..\Samples\pizzcato\A2_4.wav
lokey=44
hikey=46
group=1
off_by=1
tune_oncc123=5
pan_oncc122=-15

<region>
sample=..\Samples\pizzcato\A2_3.wav
lokey=44
hikey=46
group=2
off_by=2
tune_oncc123=-4
pan_oncc122=15

<region>
sample=..\Samples\pizzcato\A2_2.wav
lokey=44
hikey=46
group=3
off_by=3
tune_oncc123=-7
pan_oncc122=-40

<region>
sample=..\Samples\pizzcato\A2_4.wav
lokey=40
hikey=42
group=4
off_by=4
tune_oncc123=-11
pan_oncc122=70

<region>
sample=..\Samples\pizzcato\A2_3.wav
lokey=40
hikey=42
group=5
off_by=5
tune_oncc123=10
pan_oncc122=-70

<region>
sample=..\Samples\pizzcato\A2_2.wav
lokey=40
hikey=42
group=6
off_by=6
tune_oncc123=13
pan_oncc122=100

<region>
sample=..\Samples\pizzcato\A2_1.wav
lokey=40
hikey=42
group=7
off_by=7
tune_oncc123=-14
pan_oncc122=-100

<region>
sample=..\Samples\pizzcato\A2_1.wav
lokey=44
hikey=46
group=8
off_by=8
tune_oncc123=8
pan_oncc122=40

//========================
<group>
trigger=first
pitch_keycenter=48
volume=-5
locc107=81

<region>
sample=..\Samples\pizzcato\C3_4.wav
lokey=47
hikey=49
group=1
off_by=1
tune_oncc123=5
pan_oncc122=-15

<region>
sample=..\Samples\pizzcato\C3_3.wav
lokey=47
hikey=49
group=2
off_by=2
tune_oncc123=-4
pan_oncc122=15

<region>
sample=..\Samples\pizzcato\C3_2.wav
lokey=47
hikey=49
group=3
off_by=3
tune_oncc123=-7
pan_oncc122=-40

<region>
sample=..\Samples\pizzcato\C3_4.wav
lokey=43
hikey=45
group=4
off_by=4
tune_oncc123=-11
pan_oncc122=70

<region>
sample=..\Samples\pizzcato\C3_3.wav
lokey=43
hikey=45
group=5
off_by=5
tune_oncc123=10
pan_oncc122=-70

<region>
sample=..\Samples\pizzcato\C3_2.wav
lokey=43
hikey=45
group=6
off_by=6
tune_oncc123=13
pan_oncc122=100

<region>
sample=..\Samples\pizzcato\C3_1.wav
lokey=43
hikey=45
group=7
off_by=7
tune_oncc123=-14
pan_oncc122=-100

<region>
sample=..\Samples\pizzcato\C3_1.wav
lokey=47
hikey=49
group=8
off_by=8
tune_oncc123=8
pan_oncc122=40

//========================
<group>
trigger=first
pitch_keycenter=51
volume=-5
locc107=81

<region>
sample=..\Samples\pizzcato\Eb3_4.wav
lokey=50
hikey=52
group=1
off_by=1
tune_oncc123=5
pan_oncc122=-15

<region>
sample=..\Samples\pizzcato\Eb3_3.wav
lokey=50
hikey=52
group=2
off_by=2
tune_oncc123=-4
pan_oncc122=15

<region>
sample=..\Samples\pizzcato\Eb3_2.wav
lokey=50
hikey=52
group=3
off_by=3
tune_oncc123=-7
pan_oncc122=-40

<region>
sample=..\Samples\pizzcato\Eb3_4.wav
lokey=46
hikey=48
group=4
off_by=4
tune_oncc123=-11
pan_oncc122=70

<region>
sample=..\Samples\pizzcato\Eb3_3.wav
lokey=46
hikey=48
group=5
off_by=5
tune_oncc123=10
pan_oncc122=-70

<region>
sample=..\Samples\pizzcato\Eb3_2.wav
lokey=46
hikey=48
group=6
off_by=6
tune_oncc123=13
pan_oncc122=100

<region>
sample=..\Samples\pizzcato\Eb3_1.wav
lokey=46
hikey=48
group=7
off_by=7
tune_oncc123=-14
pan_oncc122=-100

<region>
sample=..\Samples\pizzcato\Eb3_1.wav
lokey=50
hikey=52
group=8
off_by=8
tune_oncc123=8
pan_oncc122=40

//========================
<group>
trigger=first
pitch_keycenter=54
volume=-5
locc107=81

<region>
sample=..\Samples\pizzcato\Gb3_4.wav
lokey=53
hikey=55
group=1
off_by=1
tune_oncc123=5
pan_oncc122=-15

<region>
sample=..\Samples\pizzcato\Gb3_3.wav
lokey=53
hikey=55
group=2
off_by=2
tune_oncc123=-4
pan_oncc122=15

<region>
sample=..\Samples\pizzcato\Gb3_2.wav
lokey=53
hikey=55
group=3
off_by=3
tune_oncc123=-7
pan_oncc122=-40

<region>
sample=..\Samples\pizzcato\Gb3_4.wav
lokey=49
hikey=51
group=4
off_by=4
tune_oncc123=-11
pan_oncc122=70

<region>
sample=..\Samples\pizzcato\Gb3_3.wav
lokey=49
hikey=51
group=5
off_by=5
tune_oncc123=10
pan_oncc122=-70

<region>
sample=..\Samples\pizzcato\Gb3_2.wav
lokey=49
hikey=51
group=6
off_by=6
tune_oncc123=13
pan_oncc122=100

<region>
sample=..\Samples\pizzcato\Gb3_1.wav
lokey=49
hikey=51
group=7
off_by=7
tune_oncc123=-14
pan_oncc122=-100

<region>
sample=..\Samples\pizzcato\Gb3_1.wav
lokey=53
hikey=55
group=8
off_by=8
tune_oncc123=8
pan_oncc122=40

//========================
<group>
trigger=first
pitch_keycenter=57
volume=-5
locc107=81

<region>
sample=..\Samples\pizzcato\A3_4.wav
lokey=56
hikey=67
group=1
off_by=1
tune_oncc123=5
pan_oncc122=-15

<region>
sample=..\Samples\pizzcato\A3_3.wav
lokey=56
hikey=67
group=2
off_by=2
tune_oncc123=-4
pan_oncc122=15

<region>
sample=..\Samples\pizzcato\A3_2.wav
lokey=56
hikey=67
group=3
off_by=3
tune_oncc123=-7
pan_oncc122=-40

<region>
sample=..\Samples\pizzcato\A3_4.wav
lokey=52
hikey=54
group=4
off_by=4
tune_oncc123=-11
pan_oncc122=70

<region>
sample=..\Samples\pizzcato\A3_3.wav
lokey=52
hikey=54
group=5
off_by=5
tune_oncc123=10
pan_oncc122=-70

<region>
sample=..\Samples\pizzcato\A3_2.wav
lokey=52
hikey=54
group=6
off_by=6
tune_oncc123=13
pan_oncc122=100

<region>
sample=..\Samples\pizzcato\A3_1.wav
lokey=52
hikey=54
group=7
off_by=7
tune_oncc123=-14
pan_oncc122=-100

<region>
sample=..\Samples\pizzcato\A3_1.wav
lokey=56
hikey=67
group=8
off_by=8
tune_oncc123=8
pan_oncc122=40

//========================
<group>
trigger=first
volume=-5
locc107=81

<region>
sample=..\Samples\pizzcato\C4_4.wav
lokey=55
hikey=67
group=4
off_by=4
tune_oncc123=-11
pan_oncc122=70

<region>
sample=..\Samples\pizzcato\C4_3.wav
lokey=55
hikey=67
group=5
off_by=5
tune_oncc123=10
pan_oncc122=-70

<region>
sample=..\Samples\pizzcato\C4_2.wav
lokey=55
hikey=67
group=6
off_by=6
tune_oncc123=13
pan_oncc122=100

<region>
sample=..\Samples\pizzcato\C4_1.wav
lokey=55
hikey=67
group=7
off_by=7
tune_oncc123=-14
pan_oncc122=-100
